<svg width="2000" height="2000" viewBox="0 0 2000 2000" fill="none" xmlns="http://www.w3.org/2000/svg">
<g filter="url(#filter0_f_348_224)">
<path d="M1000 500C934.339 500 869.321 512.933 808.658 538.06C747.995 563.188 692.876 600.017 646.447 646.447C552.678 740.215 500 867.392 500 1000C500 1221 643.5 1408.5 842 1475C867 1479 875 1463.5 875 1450V1365.5C736.5 1395.5 707 1298.5 707 1298.5C684 1240.5 651.5 1225 651.5 1225C606 1194 655 1195 655 1195C705 1198.5 731.5 1246.5 731.5 1246.5C775 1322.5 848.5 1300 877 1288C881.5 1255.5 894.5 1233.5 908.5 1221C797.5 1208.5 681 1165.5 681 975C681 919.5 700 875 732.5 839.5C727.5 827 710 775 737.5 707.5C737.5 707.5 779.5 694 875 758.5C914.5 747.5 957.5 742 1000 742C1042.5 742 1085.5 747.5 1125 758.5C1220.5 694 1262.5 707.5 1262.5 707.5C1290 775 1272.5 827 1267.5 839.5C1300 875 1319 919.5 1319 975C1319 1166 1202 1208 1090.5 1220.5C1108.5 1236 1125 1266.5 1125 1313V1450C1125 1463.5 1133 1479.5 1158.5 1475C1357 1408 1500 1221 1500 1000C1500 934.339 1487.07 869.321 1461.94 808.658C1436.81 747.995 1399.98 692.876 1353.55 646.447C1307.12 600.017 1252 563.188 1191.34 538.06C1130.68 512.933 1065.66 500 1000 500Z" fill="#7541E3" fill-opacity="0.5"/>
</g>
<path d="M1000 500C934.339 500 869.321 512.933 808.658 538.06C747.995 563.188 692.876 600.017 646.447 646.447C552.678 740.215 500 867.392 500 1000C500 1221 643.5 1408.5 842 1475C867 1479 875 1463.5 875 1450V1365.5C736.5 1395.5 707 1298.5 707 1298.5C684 1240.5 651.5 1225 651.5 1225C606 1194 655 1195 655 1195C705 1198.5 731.5 1246.5 731.5 1246.5C775 1322.5 848.5 1300 877 1288C881.5 1255.5 894.5 1233.5 908.5 1221C797.5 1208.5 681 1165.5 681 975C681 919.5 700 875 732.5 839.5C727.5 827 710 775 737.5 707.5C737.5 707.5 779.5 694 875 758.5C914.5 747.5 957.5 742 1000 742C1042.5 742 1085.5 747.5 1125 758.5C1220.5 694 1262.5 707.5 1262.5 707.5C1290 775 1272.5 827 1267.5 839.5C1300 875 1319 919.5 1319 975C1319 1166 1202 1208 1090.5 1220.5C1108.5 1236 1125 1266.5 1125 1313V1450C1125 1463.5 1133 1479.5 1158.5 1475C1357 1408 1500 1221 1500 1000C1500 934.339 1487.07 869.321 1461.94 808.658C1436.81 747.995 1399.98 692.876 1353.55 646.447C1307.12 600.017 1252 563.188 1191.34 538.06C1130.68 512.933 1065.66 500 1000 500Z" fill="white"/>
<defs>
<filter id="filter0_f_348_224" x="150" y="150" width="1700" height="1700" filterUnits="userSpaceOnUse" color-interpolation-filters="sRGB">
<feFlood flood-opacity="0" result="BackgroundImageFix"/>
<feBlend mode="normal" in="SourceGraphic" in2="BackgroundImageFix" result="shape"/>
<feGaussianBlur stdDeviation="125" result="effect1_foregroundBlur_348_224"/>
</filter>
</defs>
</svg>
