<svg width="2000" height="2000" viewBox="0 0 2000 2000" fill="none" xmlns="http://www.w3.org/2000/svg">
<g filter="url(#filter0_f_348_224)">
<g clip-path="url(#clip0_348_224)">
<path d="M1316.75 296H679.25C523.92 296 398 421.92 398 577.25V1214.75C398 1370.08 523.92 1496 679.25 1496H1316.75C1472.08 1496 1598 1370.08 1598 1214.75V577.25C1598 421.92 1472.08 296 1316.75 296Z" fill="url(#paint0_radial_348_224)" fill-opacity="0.5"/>
<path d="M1316.75 296H679.25C523.92 296 398 421.92 398 577.25V1214.75C398 1370.08 523.92 1496 679.25 1496H1316.75C1472.08 1496 1598 1370.08 1598 1214.75V577.25C1598 421.92 1472.08 296 1316.75 296Z" fill="url(#paint1_radial_348_224)" fill-opacity="0.5"/>
<path d="M998.042 427.25C870.739 427.25 854.759 427.808 804.763 430.081C754.859 432.369 720.795 440.267 690.992 451.859C660.158 463.831 634.006 479.848 607.953 505.911C581.877 531.969 565.859 558.12 553.85 588.941C542.225 618.753 534.317 652.831 532.072 702.711C529.836 752.712 529.25 768.697 529.25 896.005C529.25 1023.31 529.813 1039.24 532.081 1089.24C534.378 1139.14 542.277 1173.2 553.859 1203.01C565.841 1233.84 581.858 1259.99 607.92 1286.05C633.969 1312.12 660.12 1328.18 690.931 1340.15C720.758 1351.74 754.827 1359.64 804.72 1361.93C854.722 1364.2 870.688 1364.76 997.986 1364.76C1125.3 1364.76 1141.23 1364.2 1191.23 1361.93C1241.13 1359.64 1275.23 1351.74 1305.06 1340.15C1335.88 1328.18 1361.99 1312.12 1388.04 1286.05C1414.11 1259.99 1430.13 1233.84 1442.14 1203.02C1453.66 1173.2 1461.57 1139.13 1463.92 1089.25C1466.16 1039.25 1466.75 1023.31 1466.75 896.005C1466.75 768.697 1466.16 752.722 1463.92 702.72C1461.57 652.817 1453.66 618.758 1442.14 588.955C1430.13 558.12 1414.11 531.969 1388.04 505.911C1361.97 479.839 1335.89 463.822 1305.03 451.864C1275.15 440.267 1241.07 432.364 1191.16 430.081C1141.16 427.808 1125.24 427.25 997.897 427.25H998.042ZM955.991 511.723C968.473 511.705 982.4 511.723 998.042 511.723C1123.2 511.723 1138.03 512.173 1187.46 514.419C1233.16 516.509 1257.97 524.145 1274.49 530.563C1296.37 539.056 1311.96 549.214 1328.36 565.625C1344.77 582.031 1354.92 597.655 1363.44 619.531C1369.85 636.031 1377.5 660.838 1379.58 706.541C1381.83 755.956 1382.31 770.797 1382.31 895.897C1382.31 1021 1381.83 1035.84 1379.58 1085.25C1377.49 1130.96 1369.85 1155.76 1363.44 1172.27C1354.94 1194.14 1344.77 1209.72 1328.36 1226.12C1311.95 1242.52 1296.38 1252.68 1274.49 1261.18C1257.99 1267.62 1233.16 1275.24 1187.46 1277.33C1138.04 1279.57 1123.2 1280.06 998.042 1280.06C872.877 1280.06 858.041 1279.57 808.63 1277.33C762.927 1275.22 738.12 1267.58 721.583 1261.17C699.711 1252.67 684.083 1242.51 667.677 1226.11C651.27 1209.7 641.117 1194.12 632.6 1172.23C626.183 1155.73 618.538 1130.92 616.456 1085.22C614.211 1035.8 613.761 1020.96 613.761 895.78C613.761 770.605 614.211 755.839 616.456 706.423C618.547 660.72 626.183 635.914 632.6 619.391C641.098 597.514 651.27 581.891 667.681 565.484C684.088 549.078 699.711 538.92 721.587 530.408C738.111 523.962 762.927 516.345 808.63 514.245C851.872 512.291 868.63 511.705 955.991 511.606V511.723ZM1248.26 589.555C1217.21 589.555 1192.01 614.727 1192.01 645.786C1192.01 676.841 1217.21 702.036 1248.26 702.036C1279.32 702.036 1304.51 676.841 1304.51 645.786C1304.51 614.731 1279.32 589.536 1248.26 589.536V589.555ZM998.042 655.278C865.105 655.278 757.32 763.063 757.32 896.005C757.32 1028.95 865.105 1136.68 998.042 1136.68C1130.98 1136.68 1238.73 1028.95 1238.73 896.005C1238.73 763.067 1130.98 655.278 998.033 655.278H998.042ZM998.042 739.752C1084.33 739.752 1154.3 809.703 1154.3 896.005C1154.3 982.297 1084.33 1052.26 998.042 1052.26C911.745 1052.26 841.794 982.297 841.794 896.005C841.794 809.703 911.745 739.752 998.042 739.752Z" fill="white" fill-opacity="0.5"/>
</g>
</g>
<g clip-path="url(#clip1_348_224)">
<path d="M1316.75 296H679.25C523.92 296 398 421.92 398 577.25V1214.75C398 1370.08 523.92 1496 679.25 1496H1316.75C1472.08 1496 1598 1370.08 1598 1214.75V577.25C1598 421.92 1472.08 296 1316.75 296Z" fill="url(#paint2_radial_348_224)"/>
<path d="M1316.75 296H679.25C523.92 296 398 421.92 398 577.25V1214.75C398 1370.08 523.92 1496 679.25 1496H1316.75C1472.08 1496 1598 1370.08 1598 1214.75V577.25C1598 421.92 1472.08 296 1316.75 296Z" fill="url(#paint3_radial_348_224)"/>
<path d="M998.042 427.25C870.739 427.25 854.759 427.808 804.763 430.081C754.859 432.369 720.795 440.267 690.992 451.859C660.158 463.831 634.006 479.848 607.953 505.911C581.877 531.969 565.859 558.12 553.85 588.941C542.225 618.753 534.317 652.831 532.072 702.711C529.836 752.712 529.25 768.697 529.25 896.005C529.25 1023.31 529.813 1039.24 532.081 1089.24C534.378 1139.14 542.277 1173.2 553.859 1203.01C565.841 1233.84 581.858 1259.99 607.92 1286.05C633.969 1312.12 660.12 1328.18 690.931 1340.15C720.758 1351.74 754.827 1359.64 804.72 1361.93C854.722 1364.2 870.688 1364.76 997.986 1364.76C1125.3 1364.76 1141.23 1364.2 1191.23 1361.93C1241.13 1359.64 1275.23 1351.74 1305.06 1340.15C1335.88 1328.18 1361.99 1312.12 1388.04 1286.05C1414.11 1259.99 1430.13 1233.84 1442.14 1203.02C1453.66 1173.2 1461.57 1139.13 1463.92 1089.25C1466.16 1039.25 1466.75 1023.31 1466.75 896.005C1466.75 768.697 1466.16 752.722 1463.92 702.72C1461.57 652.817 1453.66 618.758 1442.14 588.955C1430.13 558.12 1414.11 531.969 1388.04 505.911C1361.97 479.839 1335.89 463.822 1305.03 451.864C1275.15 440.267 1241.07 432.364 1191.16 430.081C1141.16 427.808 1125.24 427.25 997.897 427.25H998.042ZM955.991 511.723C968.473 511.705 982.4 511.723 998.042 511.723C1123.2 511.723 1138.03 512.173 1187.46 514.419C1233.16 516.509 1257.97 524.145 1274.49 530.563C1296.37 539.056 1311.96 549.214 1328.36 565.625C1344.77 582.031 1354.92 597.655 1363.44 619.531C1369.85 636.031 1377.5 660.838 1379.58 706.541C1381.83 755.956 1382.31 770.797 1382.31 895.897C1382.31 1021 1381.83 1035.84 1379.58 1085.25C1377.49 1130.96 1369.85 1155.76 1363.44 1172.27C1354.94 1194.14 1344.77 1209.72 1328.36 1226.12C1311.95 1242.52 1296.38 1252.68 1274.49 1261.18C1257.99 1267.62 1233.16 1275.24 1187.46 1277.33C1138.04 1279.57 1123.2 1280.06 998.042 1280.06C872.877 1280.06 858.041 1279.57 808.63 1277.33C762.927 1275.22 738.12 1267.58 721.583 1261.17C699.711 1252.67 684.083 1242.51 667.677 1226.11C651.27 1209.7 641.117 1194.12 632.6 1172.23C626.183 1155.73 618.538 1130.92 616.456 1085.22C614.211 1035.8 613.761 1020.96 613.761 895.78C613.761 770.605 614.211 755.839 616.456 706.423C618.547 660.72 626.183 635.914 632.6 619.391C641.098 597.514 651.27 581.891 667.681 565.484C684.088 549.078 699.711 538.92 721.587 530.408C738.111 523.962 762.927 516.345 808.63 514.245C851.872 512.291 868.63 511.705 955.991 511.606V511.723ZM1248.26 589.555C1217.21 589.555 1192.01 614.727 1192.01 645.786C1192.01 676.841 1217.21 702.036 1248.26 702.036C1279.32 702.036 1304.51 676.841 1304.51 645.786C1304.51 614.731 1279.32 589.536 1248.26 589.536V589.555ZM998.042 655.278C865.105 655.278 757.32 763.063 757.32 896.005C757.32 1028.95 865.105 1136.68 998.042 1136.68C1130.98 1136.68 1238.73 1028.95 1238.73 896.005C1238.73 763.067 1130.98 655.278 998.033 655.278H998.042ZM998.042 739.752C1084.33 739.752 1154.3 809.703 1154.3 896.005C1154.3 982.297 1084.33 1052.26 998.042 1052.26C911.745 1052.26 841.794 982.297 841.794 896.005C841.794 809.703 911.745 739.752 998.042 739.752Z" fill="white"/>
</g>
<defs>
<filter id="filter0_f_348_224" x="183.8" y="81.8" width="1628.4" height="1628.4" filterUnits="userSpaceOnUse" color-interpolation-filters="sRGB">
<feFlood flood-opacity="0" result="BackgroundImageFix"/>
<feBlend mode="normal" in="SourceGraphic" in2="BackgroundImageFix" result="shape"/>
<feGaussianBlur stdDeviation="107.1" result="effect1_foregroundBlur_348_224"/>
</filter>
<radialGradient id="paint0_radial_348_224" cx="0" cy="0" r="1" gradientUnits="userSpaceOnUse" gradientTransform="translate(716.75 1588.42) rotate(-90) scale(1189.29 1106.13)">
<stop stop-color="#FFDD55"/>
<stop offset="0.1" stop-color="#FFDD55"/>
<stop offset="0.5" stop-color="#FF543E"/>
<stop offset="1" stop-color="#C837AB"/>
</radialGradient>
<radialGradient id="paint1_radial_348_224" cx="0" cy="0" r="1" gradientUnits="userSpaceOnUse" gradientTransform="translate(196.995 382.442) rotate(78.681) scale(531.619 2191.35)">
<stop stop-color="#3771C8"/>
<stop offset="0.128" stop-color="#3771C8"/>
<stop offset="1" stop-color="#6600FF" stop-opacity="0"/>
</radialGradient>
<radialGradient id="paint2_radial_348_224" cx="0" cy="0" r="1" gradientUnits="userSpaceOnUse" gradientTransform="translate(716.75 1588.42) rotate(-90) scale(1189.29 1106.13)">
<stop stop-color="#FFDD55"/>
<stop offset="0.1" stop-color="#FFDD55"/>
<stop offset="0.5" stop-color="#FF543E"/>
<stop offset="1" stop-color="#C837AB"/>
</radialGradient>
<radialGradient id="paint3_radial_348_224" cx="0" cy="0" r="1" gradientUnits="userSpaceOnUse" gradientTransform="translate(196.995 382.442) rotate(78.681) scale(531.619 2191.35)">
<stop stop-color="#3771C8"/>
<stop offset="0.128" stop-color="#3771C8"/>
<stop offset="1" stop-color="#6600FF" stop-opacity="0"/>
</radialGradient>
<clipPath id="clip0_348_224">
<rect width="1200" height="1200" fill="white" transform="translate(398 296)"/>
</clipPath>
<clipPath id="clip1_348_224">
<rect width="1200" height="1200" fill="white" transform="translate(398 296)"/>
</clipPath>
</defs>
</svg>
